<svg xmlns="http://www.w3.org/2000/svg" viewBox="0 0 1200 820"><defs><linearGradient id="g" x1="0" x2="1" y1="0" y2="1"><stop offset="0" stop-color="#071827"/><stop offset="1" stop-color="#17354f"/></linearGradient><linearGradient id="gold" x1="0" x2="1"><stop offset="0" stop-color="#d8b76a"/><stop offset="1" stop-color="#f3df9b"/></linearGradient></defs><rect width="1200" height="820" fill="url(#g)"/><circle cx="980" cy="120" r="210" fill="#ffffff" opacity=".04"/><circle cx="170" cy="700" r="270" fill="#d8b76a" opacity=".07"/><rect x="160" y="170" width="880" height="500" rx="28" fill="#0d2436" stroke="#d8b76a" stroke-opacity=".35"/><rect x="225" y="245" width="285" height="350" rx="18" fill="#132f45"/><rect x="545" y="245" width="430" height="38" rx="19" fill="#f8f3e5" opacity=".9"/><rect x="545" y="315" width="360" height="22" rx="11" fill="#f8f3e5" opacity=".55"/><rect x="545" y="365" width="390" height="22" rx="11" fill="#f8f3e5" opacity=".35"/><rect x="545" y="470" width="180" height="52" rx="26" fill="url(#gold)"/><path d="M302 551h132M368 310v208M306 376h124" stroke="#d8b76a" stroke-width="18" stroke-linecap="round"/><path d="M306 376l-42 92h84l-42-92zm124 0l-42 92h84l-42-92z" fill="none" stroke="#f3df9b" stroke-width="12" stroke-linejoin="round"/><rect x="280" y="535" width="175" height="18" rx="9" fill="#f3df9b"/><rect x="250" y="574" width="235" height="18" rx="9" fill="#d8b76a"/></svg>