<svg xmlns="http://www.w3.org/2000/svg" width="1200" height="760" viewBox="0 0 1200 760" role="img" aria-label="Consejos de mantenimiento">
  <defs>
    <linearGradient id="g" x1="0" y1="0" x2="1" y2="1">
      <stop offset="0" stop-color="#0b1f2a"/>
      <stop offset="1" stop-color="#14364a"/>
    </linearGradient>
    <filter id="shadow" x="-20%" y="-20%" width="140%" height="140%">
      <feDropShadow dx="0" dy="24" stdDeviation="24" flood-opacity=".22"/>
    </filter>
  </defs>
  <rect width="1200" height="760" rx="42" fill="url(#g)"/>
  <circle cx="1010" cy="104" r="138" fill="#12b886" opacity=".12"/>
  <circle cx="170" cy="640" r="200" fill="#f59f00" opacity=".10"/>
  <g transform="translate(690 190) scale(1.55)" filter="url(#shadow)">
    
        <path d="M78 198l78-78" stroke="#ffffff" stroke-width="14" stroke-linecap="round"/>
        <path d="M154 63c18-8 40-4 54 10l-34 34 28 28 34-34c14 26 3 59-24 73-22 11-48 6-64-12l-70 70c-8 8-21 8-29 0s-8-21 0-29l70-70c-18-21-20-51-5-74 9-14 23-24 40-28z" fill="#123246" stroke="#ffffff" stroke-width="4"/>
        <circle cx="67" cy="215" r="8" fill="#12b886"/>
        
  </g>
  <g transform="translate(86 130)">
    <rect width="520" height="74" rx="37" fill="#12b886" opacity=".16"/>
    <text x="26" y="48" fill="#12b886" font-size="30" font-family="Arial, sans-serif" font-weight="700">Servicio técnico a domicilio</text>
    <text x="0" y="168" fill="#ffffff" font-size="62" font-family="Arial, sans-serif" font-weight="800">Consejos de mantenimiento</text>
    <foreignObject x="0" y="205" width="560" height="150">
      <div xmlns="http://www.w3.org/1999/xhtml" style="font-family:Arial,sans-serif;font-size:28px;line-height:1.35;color:#cfe3ef;font-weight:500">Guías útiles para cuidar tus electrodomésticos y evitar daños costosos.</div>
    </foreignObject>
    <rect x="0" y="420" width="244" height="66" rx="33" fill="#12b886"/>
    <text x="36" y="463" fill="#fff" font-size="24" font-family="Arial, sans-serif" font-weight="700">Agenda visita</text>
  </g>
</svg>