<svg xmlns="http://www.w3.org/2000/svg" width="1200" height="760" viewBox="0 0 1200 760" role="img" aria-label="Servicio técnico a domicilio">
  <defs>
    <linearGradient id="g" x1="0" y1="0" x2="1" y2="1">
      <stop offset="0" stop-color="#f4f7fb"/>
      <stop offset="1" stop-color="#e8eef6"/>
    </linearGradient>
    <filter id="shadow" x="-20%" y="-20%" width="140%" height="140%">
      <feDropShadow dx="0" dy="24" stdDeviation="24" flood-opacity=".22"/>
    </filter>
  </defs>
  <rect width="1200" height="760" rx="42" fill="url(#g)"/>
  <circle cx="1010" cy="104" r="138" fill="#12b886" opacity=".12"/>
  <circle cx="170" cy="640" r="200" fill="#f59f00" opacity=".10"/>
  <g transform="translate(690 190) scale(1.55)" filter="url(#shadow)">
    
        <rect x="42" y="112" width="132" height="64" rx="12" fill="#ffffff" stroke="#0b1f2a" stroke-width="4"/>
        <path d="M174 132h34l28 32v12h-62z" fill="#ffffff" stroke="#0b1f2a" stroke-width="4"/>
        <circle cx="84" cy="183" r="19" fill="#f4f7fb" stroke="#0b1f2a" stroke-width="5"/>
        <circle cx="196" cy="183" r="19" fill="#f4f7fb" stroke="#0b1f2a" stroke-width="5"/>
        <rect x="62" y="130" width="54" height="24" rx="6" fill="#12b886"/>
        <rect x="128" y="130" width="26" height="24" rx="6" fill="#f59f00"/>
        
  </g>
  <g transform="translate(86 130)">
    <rect width="520" height="74" rx="37" fill="#12b886" opacity=".16"/>
    <text x="26" y="48" fill="#12b886" font-size="30" font-family="Arial, sans-serif" font-weight="700">Servicio técnico a domicilio</text>
    <text x="0" y="168" fill="#0b1f2a" font-size="62" font-family="Arial, sans-serif" font-weight="800">Servicio técnico a domicilio</text>
    <foreignObject x="0" y="205" width="560" height="150">
      <div xmlns="http://www.w3.org/1999/xhtml" style="font-family:Arial,sans-serif;font-size:28px;line-height:1.35;color:#5b6773;font-weight:500">Cobertura en Medellín y principales zonas del área metropolitana.</div>
    </foreignObject>
    <rect x="0" y="420" width="244" height="66" rx="33" fill="#12b886"/>
    <text x="36" y="463" fill="#fff" font-size="24" font-family="Arial, sans-serif" font-weight="700">Agenda visita</text>
  </g>
</svg>